<?xml version="1.0" encoding="UTF-8"?>
<svg xmlns="http://www.w3.org/2000/svg" viewBox="0 0 449.84 482.26">
  <defs>
    <style>
      .cls-1 {
        fill: #f9d533;
      }

      .cls-2 {
        fill: #fff;
      }

      .cls-3, .cls-4, .cls-5 {
        fill: #5e6bb0;
      }

      .cls-4 {
        mix-blend-mode: multiply;
        opacity: .9;
      }

      .cls-5 {
        mix-blend-mode: screen;
      }

      .cls-6 {
        isolation: isolate;
      }

      .cls-7 {
        fill: #36393e;
      }

      .cls-8 {
        fill: #1d2023;
      }

      .cls-9 {
        fill: #f4a82b;
      }

      .cls-10 {
        fill: #eeeded;
      }
    </style>
  </defs>
  <g class="cls-6">
    <g id="Layer_2" data-name="Layer 2">
      <g id="Layer_1-2" data-name="Layer 1">
        <g>
          <path class="cls-8" d="m225.15,482.26C69.19,437.62,15.37,354.63,15.37,354.63-17.27,195.2,12.22,12.36,12.22,12.36l75.13,85C145.03,34.37,225.15,0,225.15,0c0,0,77.73,33.61,135.41,96.6L436.45,12.36s31.11,182.83-1.52,342.26c0,0-53.83,83-209.78,127.63Z"/>
          <path class="cls-7" d="m355.21,111c-22.92,22.92-45.77,45.74-70.38,66.86-19.36,16.61-39.84,31.77-59.72,47.67-.28.22-3.19,2.14-3.14,2.5-17.47-122.25,3.15-212.98,3.15-212.98,17.35,8.32,78.89,40.02,125.37,90.78,0,0,4.73,5.17,4.73,5.17Z"/>
          <path class="cls-2" d="m424.38,337.06c-.2,1.16-.41,2.32-.63,3.46-.21,1.17-.44,2.35-.66,3.52-.32,1.69-.64,3.37-.98,5.06-.35.48-.78,1.05-1.27,1.68,3.03-28.13,10-118.22-4.27-260.6,0,0-99.18,101.03-191.61,143.76.02-.01.06-.04.11-.07,3.89-2.53,79.48-52.01,144.86-127.25l57.08-63.36c2.34,18.92,5.4,47.66,7.3,81.43,3.11,55.32,3.74,135.76-9.92,212.37Z"/>
          <path class="cls-3" d="m420.84,350.78c-5.37,7-18.42,22.42-41.51,40.77-28.47,22.63-78.28,54.19-154.19,76.48-47.51-13.95-84.8-31.54-113.02-48.28-16.87-10.02-30.51-19.74-41.16-28.2-25.15-19.98-38.4-36.52-42.77-42.45-.73-3.68-1.44-7.38-2.1-11.08-13.91-76.99-13.68-158-10.88-213.63,1.63-32.58,4.27-60.27,6.62-80.53l24.3,27.49c30.46,38.7,88.37,102.23,178.81,162.6,0,0,.01,0,.02-.01,92.44-42.72,191.61-143.76,191.61-143.76,14.27,142.39,7.3,232.47,4.27,260.6Z"/>
          <path class="cls-4" d="m224.91,251.11v70.34c-.53.31-1.03.59-1.48.84-15.17-8.47-84.4-49.26-135.31-114.48l-9.37-12-2.2,15.08c-.2,1.43-5.04,35.48-1.9,81.31,2.38,34.66,9.91,81.46,31.22,123.77-14.02-8.66-25.6-17.02-34.91-24.41-25.15-19.98-38.4-36.52-42.77-42.45-.73-3.68-1.44-7.38-2.1-11.08-3.7-35.24-5.29-68.69-5.57-99.14l27.08,35.14-26.58-79.32c2.19-70.25,10.41-116.06,10.41-116.06,13.09,19.65,76.09,79.54,76.09,79.54l20.89,59.87-2.19-41.47c40.23,40.23,98.69,74.53,98.69,74.53Z"/>
          <path class="cls-5" d="m223.43,337.03v130.5c-38.25-11.36-69.82-25.07-95.32-38.75-28.53-44.51-37.79-98.64-40.45-137.18-1.8-25.81-.92-48.1.14-62.32.02-.4.05-.79.08-1.18,1.3,1.54,2.61,3.06,3.95,4.56,39.37,44.96,84.32,76.14,109.32,91.62,11.14,6.91,18.32,10.69,19.27,11.19l3,1.56Z"/>
          <path class="cls-10" d="m359.21,291.6c-2.72,39.34-12.31,94.92-42.26,139.94-24.94,12.96-55.35,25.8-91.8,36.5-.58-.17-1.15-.34-1.71-.51v-130.5l1.48-.77,1.53-.79c3.2-1.67,74.9-39.52,132.55-107.37,1.09,14.15,2.06,36.97.22,63.5Z"/>
          <path class="cls-8" d="m370.3,210.88l-2.19-15.08-9.38,12c-5.46,6.99-11.13,13.71-16.91,20.13-4.35,4.82-8.77,9.48-13.23,13.98-4,4.03-8.02,7.95-12.04,11.71-24.9,23.31-49.71,41.28-67.88,53.22-1.18.77-2.33,1.53-3.45,2.25-4.74,3.05-8.95,5.65-12.49,7.78-3.18,1.9-5.82,3.44-7.83,4.58-.53.31-1.03.59-1.48.84-15.17-8.47-84.4-49.26-135.31-114.48l-9.37-12-2.2,15.08c-.2,1.43-5.04,35.48-1.9,81.31,2.38,34.66,9.91,81.46,31.22,123.77.01,0,.01.01.01.01,2.03,1.25,3.59,3.62,5.72,4.88.15.09.31.18.46.27,1.92,1.14,3.87,2.27,5.87,3.42.56.31,1.12.63,1.69.95,2.59,1.47,9.87,6.22,8.49,3.29-28.53-44.51-37.79-98.64-40.45-137.18-1.8-25.81-.92-48.1.14-62.32.02-.4.05-.79.08-1.18,1.3,1.54,2.61,3.06,3.95,4.56,1.83,2.08,3.67,4.13,5.51,6.15-2.49,30.82-3.94,121.14,63.3,131.35,25.81,0,41.29-20.87,49.68-40.35,0,0,0,0,0,0,5.83,3.41,9.44,5.32,10.1,5.66l3,1.56,1.48-.77,1.53-.79c.69-.35,4.6-2.41,10.88-6.11,8.38,19.48,23.86,40.35,49.68,40.35,67.49-10.25,65.78-101.2,63.28-131.7,2.93-3.23,5.84-6.53,8.72-9.91,1.09,14.15,2.06,36.97.22,63.5-2.7,39.04-12.17,94.05-41.58,138.88l-4.44,3.37,2.03,5.14c4.9-2.55,6.51-.25,11.09-2.85l12.01-5.7,1.11-11.43c22.5-43.09,30.36-91.34,32.78-126.82,3.15-45.83-1.69-79.88-1.9-81.31Z"/>
          <path class="cls-9" d="m338.35,250.63c-.76,27.02-6.75,105.04-50.66,105.04-19.46,0-31.27-14.84-38.38-33.63,1.45-.91,2.97-1.88,4.53-2.89,19.23-12.46,46.25-31.86,73.4-57.62,3.71-3.51,7.41-7.14,11.12-10.9Zm-229.06.47c.76,27.02,6.75,105.04,50.66,105.04,19.46,0,31.27-14.84,38.38-33.63-1.45-.91-2.97-1.88-4.53-2.89-19.23-12.46-46.25-31.86-73.4-57.62-3.71-3.51-7.41-7.14-11.12-10.9Z"/>
          <path class="cls-1" d="m327.23,261.53c-2.23,22.01-11.2,78.93-44.23,78.93-13.61,0-22.87-9.13-29.17-21.31,19.23-12.46,46.25-31.86,73.4-57.62Zm-206.83.47c2.23,22.01,11.2,78.93,44.23,78.93,13.61,0,22.87-9.13,29.17-21.31-19.23-12.46-46.25-31.86-73.4-57.62Z"/>
        </g>
      </g>
    </g>
  </g>
</svg>